<svg xmlns="http://www.w3.org/2000/svg" width="25" height="18" fill="none" viewBox="0 0 25 18">
    <path
        fill="currentColor"
        d="M24.26 4.2s-.233-1.655-.955-2.381C22.39.863 21.369.858 20.9.802 17.544.558 12.505.558 12.505.558h-.01S7.456.558 4.1.802c-.469.056-1.49.06-2.405 1.017C.973 2.545.744 4.2.744 4.2S.5 6.145.5 8.086v1.819c0 1.94.24 3.886.24 3.886s.233 1.654.95 2.38c.915.957 2.115.924 2.65 1.027 1.92.183 8.16.24 8.16.24s5.044-.01 8.4-.249c.469-.056 1.49-.06 2.405-1.017.722-.727.956-2.381.956-2.381s.239-1.941.239-3.886V8.086c0-1.94-.24-3.886-.24-3.886Zm-14.24 7.913V5.367l6.483 3.385-6.483 3.36Z" />
</svg>
