<svg xmlns="http://www.w3.org/2000/svg" fill="none" viewBox="0 0 24 24">
    <path stroke="currentColor" stroke-linecap="round" stroke-linejoin="round" stroke-width="2" d="M6.893 17.79a12.356 12.356 0 0 0 1.947-6.686 3.552 3.552 0 0 1 7.103 0c0 .903-.061 1.792-.18 2.663m-1.88 6.077a19.424 19.424 0 0 0 1.324-3.413m3.409 1.005a23.13 23.13 0 0 0 .879-6.333A7.103 7.103 0 0 0 8.84 4.95M4.4 14.978a8.844 8.844 0 0 0 .888-3.875 7.07 7.07 0 0 1 .95-3.551m6.154 3.552c0 3.123-.896 6.036-2.445 8.498"/>
</svg>
